<svg width="343" height="29" viewBox="0 0 343 29" fill="none" xmlns="http://www.w3.org/2000/svg">
<g opacity="0.5" clip-path="url(#clip0_2_41)">
<path d="M31.7187 -3.45384L35.7581 7.46942L31.4211 8.27368L31.7187 -3.45384Z" fill="#00C762"/>
<rect x="99.9773" y="7.11617" width="17.5972" height="5.86572" transform="rotate(-165.085 99.9773 7.11617)" fill="#00C762"/>
<path d="M137.24 7.78387L135.898 12.551L140.017 15.3002L135.069 15.4972L133.727 20.2644L132.011 15.619L127.062 15.816L130.95 12.748L129.233 8.10265L133.352 10.8519L137.24 7.78387Z" fill="#00C762"/>
<path d="M126.526 -3.6783L116.753 13.5362L110.962 8.59469L126.526 -3.6783Z" fill="#00C762"/>
<path d="M52.3767 9.77871L53.0841 3.69459L58.0154 6.81207L58.5775 1.70816L63.0756 4.79806L64.4765 -0.719684" stroke="#00C762" stroke-width="1.59972"/>
<path d="M135.128 -1.20179C135.128 0.749275 138.27 2.33092 136.084 2.33092C133.897 2.33092 132.125 0.749275 132.125 -1.20179C132.125 -3.15285 133.897 -4.7345 136.084 -4.7345C138.27 -4.7345 135.128 -3.15285 135.128 -1.20179Z" fill="#00C762"/>
<circle cx="102.866" cy="20.8655" r="5.86563" fill="#00C762"/>
<path d="M13.6993 17.373C13.6993 17.373 6.82452 16.7162 6.36376 13.1911C5.97667 10.2296 11.4674 9.22325 10.2884 6.55915C9.09409 3.86063 4.77567 8.64109 3.11946 6.26361C1.37635 3.76141 5.26197 -1.73238 5.26197 -1.73238" stroke="#00C762" stroke-width="1.59972"/>
<path d="M64.0728 23.333C64.0728 23.333 72.4561 15.9071 75.3304 17.8518C76.9094 18.9201 78.2719 20.3615 77.5586 22.0203C77.0087 23.2991 75.8425 23.7558 74.3674 23.8852C71.2436 24.1593 70.1761 19.9942 70.6843 17.1012C71.3861 13.107 80.7241 12.8515 80.7241 12.8515" stroke="#00C762" stroke-width="1.59972"/>
<path d="M174.719 -3.45384L178.758 7.46942L174.421 8.27368L174.719 -3.45384Z" fill="#00C762"/>
<rect x="242.977" y="7.11617" width="17.5972" height="5.86572" transform="rotate(-165.085 242.977 7.11617)" fill="#00C762"/>
<path d="M280.24 7.78387L278.898 12.551L283.017 15.3002L278.069 15.4972L276.727 20.2644L275.011 15.619L270.062 15.816L273.95 12.748L272.233 8.10265L276.352 10.8519L280.24 7.78387Z" fill="#00C762"/>
<path d="M269.526 -3.6783L259.753 13.5362L253.962 8.59469L269.526 -3.6783Z" fill="#00C762"/>
<path d="M195.377 9.77871L196.084 3.69459L201.015 6.81207L201.578 1.70816L206.076 4.79806L207.476 -0.719684" stroke="#00C762" stroke-width="1.59972"/>
<path d="M278.128 -1.20179C278.128 0.749275 281.27 2.33092 279.084 2.33092C276.897 2.33092 275.125 0.749275 275.125 -1.20179C275.125 -3.15285 276.897 -4.7345 279.084 -4.7345C281.27 -4.7345 278.128 -3.15285 278.128 -1.20179Z" fill="#00C762"/>
<path d="M156.699 17.373C156.699 17.373 149.825 16.7162 149.364 13.1911C148.977 10.2296 154.467 9.22325 153.288 6.55915C152.094 3.86063 147.776 8.64109 146.119 6.26361C144.376 3.76141 148.262 -1.73238 148.262 -1.73238" stroke="#00C762" stroke-width="1.59972"/>
<path d="M207.073 23.333C207.073 23.333 215.456 15.9071 218.33 17.8518C219.909 18.9201 221.272 20.3615 220.559 22.0203C220.009 23.2991 218.843 23.7558 217.367 23.8852C214.244 24.1593 213.176 19.9942 213.684 17.1012C214.386 13.107 223.724 12.8515 223.724 12.8515" stroke="#00C762" stroke-width="1.59972"/>
<path d="M317.719 -3.45384L321.758 7.46942L317.421 8.27368L317.719 -3.45384Z" fill="#00C762"/>
<path d="M338.377 9.77871L339.084 3.69459L344.015 6.81207L344.578 1.70816L349.076 4.79806L350.476 -0.719684" stroke="#00C762" stroke-width="1.59972"/>
<path d="M299.699 17.373C299.699 17.373 292.825 16.7162 292.364 13.1911C291.977 10.2296 297.467 9.22325 296.288 6.55915C295.094 3.86063 290.776 8.64109 289.119 6.26361C287.376 3.76141 291.262 -1.73238 291.262 -1.73238" stroke="#00C762" stroke-width="1.59972"/>
</g>
<defs>
<clipPath id="clip0_2_41">
<rect width="343" height="38" fill="white" transform="translate(0 -9.00012)"/>
</clipPath>
</defs>
</svg>
