<svg width="22" height="24" viewBox="0 0 22 24" fill="none" xmlns="http://www.w3.org/2000/svg">
<path fill-rule="evenodd" clip-rule="evenodd" d="M0.227646 5.19314C4.20856 5.14364 8.03622 3.65098 10.9997 0.992401C13.963 3.65148 17.7906 5.14464 21.7717 5.19452C21.923 6.08829 22 7.00956 22 7.94596C22 15.1305 17.4074 21.2426 10.9997 23.5073C4.59201 21.2412 -0.000610352 15.1292 -0.000610352 7.94459C-0.000610352 7.00681 0.0777666 6.08829 0.227646 5.19314ZM16.097 10.2918C16.3474 10.0324 16.486 9.68511 16.4829 9.32458C16.4798 8.96405 16.3351 8.61917 16.0802 8.36423C15.8253 8.10928 15.4804 7.96467 15.1199 7.96154C14.7593 7.95841 14.412 8.097 14.1526 8.34748L9.62465 12.8755L7.84673 11.0976C7.58739 10.8471 7.24006 10.7085 6.87952 10.7116C6.51899 10.7147 6.17412 10.8594 5.91917 11.1143C5.66423 11.3692 5.51962 11.7141 5.51649 12.0747C5.51335 12.4352 5.65195 12.7825 5.90243 13.0419L8.6525 15.7919C8.91036 16.0497 9.26004 16.1945 9.62465 16.1945C9.98926 16.1945 10.3389 16.0497 10.5968 15.7919L16.097 10.2918Z" fill="#00C762"/>
</svg>
